<svg width="133" height="132" viewBox="0 0 133 132" fill="none" xmlns="http://www.w3.org/2000/svg">
<path d="M46.8552 123.061L47.3183 121.313L50.195 122.076L52.5924 113.028L54.7577 113.602L52.3603 122.649L55.237 123.412L54.774 125.159L46.8552 123.061Z" fill="black"/>
<path d="M32.9632 116.155L38.4034 106.401L40.3597 107.493L38.0449 111.643L42.2229 113.973L44.5377 109.823L46.494 110.914L41.0538 120.667L39.0975 119.576L41.3344 115.566L37.1564 113.236L34.9195 117.246L32.9632 116.155Z" fill="black"/>
<path d="M27.3596 109.152L29.2719 107.107L26.5254 104.539L27.7384 103.242L30.4849 105.81L32.5064 103.647L29.4093 100.752L30.6551 99.4194L35.3884 103.845L27.7501 112.014L23.0168 107.589L24.2625 106.256L27.3596 109.152Z" fill="black"/>
<path d="M16.5219 87.7573C16.3511 87.1404 16.4067 86.5374 16.6888 85.9485C16.9709 85.3595 17.4091 84.9199 18.0033 84.6296C18.54 84.3674 19.08 84.2698 19.6232 84.3368C20.1522 84.399 20.6534 84.623 21.1269 85.009C21.6004 85.395 22.0033 85.9283 22.3358 86.6087L24.4498 90.9359L14.4152 95.8382L12.3925 91.6979C12.0601 91.0174 11.8847 90.3789 11.8663 89.7825C11.8433 89.1764 11.9674 88.6528 12.2386 88.2116C12.5051 87.7609 12.8876 87.4138 13.3859 87.1703C13.9706 86.8847 14.5366 86.804 15.0841 86.9283C15.6269 87.0431 16.1061 87.3194 16.5219 87.7573ZM17.5723 91.8028L16.6733 89.9627C16.4392 89.4835 16.1535 89.166 15.8163 89.0102C15.4694 88.8592 15.0947 88.8819 14.6922 89.0786C14.2896 89.2753 14.0414 89.5568 13.9474 89.9233C13.8533 90.2897 13.9234 90.7126 14.1575 91.1918L15.0565 93.0319L17.5723 91.8028ZM20.8374 87.6969C20.5986 87.2081 20.2986 86.8857 19.9375 86.7298C19.5717 86.5642 19.1779 86.5844 18.7562 86.7904C18.325 87.0011 18.0597 87.3088 17.9606 87.7133C17.8519 88.1226 17.9169 88.5716 18.1557 89.0604L19.1249 91.0443L21.8276 89.7239L20.8374 87.6969Z" fill="black"/>
<path d="M10.2284 79.9549L12.9579 79.3305L12.1193 75.6652L13.8506 75.2691L14.6891 78.9344L17.5746 78.2743L16.629 74.1411L18.407 73.7343L19.8522 80.0511L8.94988 82.5453L7.50472 76.2285L9.28278 75.8217L10.2284 79.9549Z" fill="black"/>
<path d="M18.1347 65.9303C18.1311 66.709 17.9945 67.4123 17.725 68.0404C17.4554 68.6579 17.0692 69.1468 16.5662 69.5071C16.0632 69.8675 15.4703 70.0514 14.7876 70.0589L14.7987 67.6589C15.2575 67.629 15.6209 67.4707 15.8889 67.184C16.1569 66.8865 16.2921 66.4818 16.2945 65.9698C16.2969 65.4472 16.1761 65.0359 15.9322 64.7361C15.6776 64.4363 15.3476 64.2854 14.9423 64.2836C14.6116 64.282 14.3391 64.3821 14.1249 64.5838C13.9106 64.7855 13.7441 65.0407 13.6253 65.3495C13.496 65.6476 13.3554 66.0629 13.2036 66.5956C12.9869 67.3199 12.7762 67.9109 12.5714 68.3687C12.356 68.8157 12.0395 69.2035 11.622 69.5323C11.1939 69.8503 10.6278 70.0077 9.92381 70.0044C9.26248 70.0014 8.68725 69.8334 8.19812 69.5005C7.70898 69.1675 7.33779 68.7018 7.08456 68.1033C6.82065 67.5048 6.69047 66.8215 6.69402 66.0535C6.69933 64.9015 6.98631 63.9695 7.55493 63.2574C8.11294 62.5347 8.89345 62.1383 9.89645 62.0682L9.88507 64.5322C9.50098 64.5518 9.18555 64.7156 8.93879 65.0238C8.68142 65.3213 8.55157 65.7207 8.54926 66.2221C8.54724 66.6594 8.65761 67.0119 8.88038 67.2796C9.10319 67.5366 9.42793 67.6661 9.85459 67.6681C10.1533 67.6695 10.4044 67.5746 10.6079 67.3836C10.8008 67.1818 10.962 66.9372 11.0913 66.6498C11.21 66.3517 11.3506 65.9363 11.5131 65.4037C11.7297 64.6794 11.9458 64.0884 12.1613 63.6307C12.3767 63.173 12.6985 62.7798 13.1267 62.4512C13.5549 62.1225 14.1157 61.9597 14.809 61.9629C15.4063 61.9657 15.9603 62.1229 16.4708 62.4346C16.9814 62.7463 17.39 63.2015 17.6965 63.8003C17.9924 64.399 18.1385 65.109 18.1347 65.9303Z" fill="black"/>
<path d="M9.64972 47.9634L11.4055 48.3947L10.6955 51.2848L19.7853 53.5178L19.2509 55.6931L10.1611 53.4601L9.45115 56.3502L7.69535 55.9188L9.64972 47.9634Z" fill="black"/>
<path d="M23.2136 30.4354C23.7024 30.7786 24.078 31.2183 24.3402 31.7543C24.6086 32.2817 24.699 32.8861 24.6115 33.5675C24.5301 34.2403 24.2259 34.952 23.6987 35.7028L22.623 37.2348L26.1322 39.6989L24.845 41.5321L15.7052 35.1144L18.0682 31.7491C18.5647 31.042 19.1098 30.5255 19.7037 30.1996C20.2975 29.8736 20.8941 29.7386 21.4935 29.7945C22.099 29.8417 22.6723 30.0553 23.2136 30.4354ZM22.1639 34.7424C22.5194 34.236 22.6695 33.781 22.6142 33.3772C22.5501 32.9673 22.3086 32.6152 21.8896 32.321C20.9991 31.6957 20.2045 31.8807 19.5058 32.8759L18.4852 34.3293L21.1433 36.1958L22.1639 34.7424Z" fill="black"/>
<path d="M36.441 28.4684L31.7263 26.8004L30.9293 27.4932L33.7844 30.7777L32.0939 32.2472L24.767 23.8186L27.9308 21.0684C28.5829 20.5016 29.2398 20.1355 29.9016 19.97C30.5564 19.7966 31.168 19.8091 31.7363 20.0076C32.3056 20.1911 32.8003 20.5243 33.2201 21.0073C33.703 21.5628 33.9794 22.2059 34.0492 22.9366C34.1121 23.6593 33.899 24.3816 33.41 25.1035L38.3972 26.7679L36.441 28.4684ZM29.8271 26.2253L31.2399 24.9971C31.6988 24.5982 31.9465 24.1921 31.9829 23.7788C32.0124 23.3575 31.8557 22.9496 31.5128 22.5551C31.1769 22.1687 30.8052 21.9688 30.3979 21.9555C29.9835 21.934 29.5469 22.1228 29.0881 22.5217L27.6752 23.7498L29.8271 26.2253Z" fill="black"/>
<path d="M45.9795 22.7721C45.0393 23.229 44.0686 23.4279 43.0675 23.3688C42.0663 23.3097 41.1467 23.0035 40.3086 22.4502C39.4658 21.8872 38.8043 21.1116 38.3242 20.1235C37.8487 19.1449 37.6524 18.1551 37.7353 17.1542C37.8135 16.1438 38.1388 15.2267 38.7111 14.4031C39.2834 13.5796 40.0396 12.9393 40.9798 12.4825C41.9296 12.021 42.9003 11.8221 43.8919 11.8858C44.893 11.9449 45.8102 12.2582 46.6434 12.8258C47.4815 13.3792 48.1383 14.1452 48.6138 15.1238C49.094 16.1119 49.2949 17.1113 49.2166 18.1218C49.1433 19.118 48.8205 20.0279 48.2483 20.8515C47.676 21.6751 46.9197 22.3153 45.9795 22.7721ZM45.1054 20.9732C45.7099 20.6795 46.1771 20.2865 46.5071 19.7941C46.8324 19.2921 47.001 18.7239 47.013 18.0896C47.025 17.4552 46.8678 16.8023 46.5415 16.1307C46.2152 15.4591 45.8013 14.9368 45.2998 14.5638C44.7937 14.1812 44.2451 13.9674 43.6541 13.9225C43.063 13.8777 42.4653 14.0021 41.8609 14.2958C41.2565 14.5895 40.7845 14.9848 40.4449 15.4819C40.1149 15.9743 39.9439 16.5377 39.9319 17.172C39.9153 17.7968 40.0702 18.4449 40.3965 19.1165C40.7228 19.7881 41.139 20.3152 41.6451 20.6978C42.1512 21.0804 42.7021 21.299 43.2979 21.3535C43.8985 21.3937 44.501 21.2669 45.1054 20.9732Z" fill="black"/>
<path d="M60.5515 10.5057C60.6638 11.0924 60.6276 11.6695 60.4429 12.237C60.2687 12.8025 59.9131 13.2995 59.3761 13.728C58.8495 14.1545 58.1357 14.454 57.2347 14.6264L55.3961 14.9781L56.2018 19.1897L54.0017 19.6106L51.9032 8.64154L55.942 7.86891C56.7906 7.70656 57.5415 7.71494 58.1948 7.89405C58.8481 8.07315 59.3705 8.39132 59.7621 8.84856C60.1641 9.3038 60.4273 9.85619 60.5515 10.5057ZM56.8007 12.8686C57.4083 12.7524 57.8328 12.53 58.074 12.2015C58.3133 11.8625 58.3848 11.4415 58.2886 10.9387C58.0841 9.87004 57.3847 9.44997 56.1904 9.67846L54.446 10.0122L55.0563 13.2023L56.8007 12.8686Z" fill="black"/>
<path d="M68.3288 8.76832L68.2154 11.566L71.9723 11.7183L71.9004 13.4928L68.1435 13.3406L68.0236 16.2981L72.2602 16.4698L72.1863 18.2923L65.7116 18.0299L66.1645 6.85511L72.6392 7.11751L72.5653 8.94002L68.3288 8.76832Z" fill="black"/>
<path d="M81.6529 20.4766L80.4392 15.625L79.4214 15.3433L78.2605 19.5376L76.1016 18.9401L79.0808 8.17678L83.1209 9.29505C83.9536 9.52553 84.6217 9.87093 85.1251 10.3312C85.6314 10.7813 85.9588 11.298 86.1072 11.8814C86.2687 12.4574 86.2642 13.0537 86.0934 13.6705C85.8971 14.3799 85.5137 14.9655 84.9431 15.4273C84.3754 15.8789 83.6556 16.1003 82.7837 16.0914L84.151 21.1681L81.6529 20.4766ZM79.8696 13.7242L81.6737 14.2236C82.2597 14.3858 82.735 14.3679 83.0997 14.17C83.4672 13.9619 83.7207 13.6059 83.8601 13.1022C83.9967 12.6087 83.9581 12.1885 83.7442 11.8416C83.5332 11.4844 83.1347 11.2246 82.5487 11.0624L80.7446 10.5631L79.8696 13.7242Z" fill="black"/>
<path d="M99.352 16.6012L98.4752 18.1823L95.8726 16.7391L91.3335 24.9248L89.3745 23.8385L93.9136 15.6528L91.311 14.2096L92.1878 12.6284L99.352 16.6012Z" fill="black"/>
<path d="M110.821 26.3118L103.116 29.1218L100.487 31.9862L98.8368 30.4715L101.466 27.6071L103.595 19.6796L105.457 21.3891L103.774 26.7722L108.982 24.624L110.821 26.3118Z" fill="black"/>
<path d="M119.118 46.3588C118.58 46.6187 118.013 46.7327 117.417 46.7008C116.826 46.6786 116.254 46.4633 115.701 46.0551C115.153 45.6565 114.68 45.0443 114.281 44.2183L113.466 42.5328L109.605 44.3986L108.631 42.3818L118.686 37.5224L120.475 41.2247C120.851 42.0027 121.037 42.7303 121.033 43.4077C121.028 44.0851 120.856 44.6719 120.515 45.1683C120.179 45.6742 119.713 46.071 119.118 46.3588ZM115.867 43.3452C116.136 43.9022 116.46 44.2549 116.84 44.4031C117.229 44.5467 117.654 44.5071 118.115 44.2843C119.095 43.8109 119.32 43.0268 118.791 41.9319L118.018 40.3329L115.094 41.7461L115.867 43.3452Z" fill="black"/>
<path d="M115.405 55.0941L116.234 58.6794L114.504 59.0798L113.169 53.3122L124.05 50.7945L124.555 52.9768L115.405 55.0941Z" fill="black"/>
<path d="M117.058 69.7267L117.097 65.2789L114.976 64.524L114.997 62.1721L126.145 66.2873L126.122 68.8952L114.902 72.8117L114.924 70.4437L117.058 69.7267ZM118.855 69.1346L123.541 67.5602L118.884 65.9028L118.855 69.1346Z" fill="black"/>
<path d="M122.987 86.1825L121.239 85.7201L122 82.8431L112.952 80.4489L113.524 78.2834L122.573 80.6776L123.334 77.8006L125.082 78.263L122.987 86.1825Z" fill="black"/>
<path d="M117.421 97.8665L115.819 97.0293L117.975 92.9025L115.436 91.5764L113.784 94.7388L112.21 93.9164L113.862 90.754L109.679 88.5683L110.716 86.583L120.615 91.7544L117.421 97.8665Z" fill="black"/>
<path d="M102.018 99.3768C102.716 98.5987 103.54 98.0479 104.489 97.7245C105.439 97.4011 106.406 97.3373 107.391 97.5332C108.384 97.7361 109.289 98.2045 110.107 98.9381C110.917 99.6647 111.472 100.507 111.774 101.465C112.083 102.43 112.128 103.402 111.909 104.381C111.69 105.36 111.232 106.238 110.534 107.016C109.829 107.802 109.005 108.353 108.063 108.668C107.113 108.992 106.146 109.048 105.16 108.837C104.175 108.641 103.278 108.18 102.468 107.454C101.65 106.72 101.086 105.871 100.777 104.905C100.469 103.955 100.424 102.991 100.643 102.012C100.862 101.033 101.32 100.155 102.018 99.3768ZM103.507 100.712C103.058 101.213 102.774 101.753 102.655 102.333C102.543 102.921 102.601 103.511 102.83 104.103C103.058 104.695 103.45 105.24 104.006 105.739C104.562 106.237 105.143 106.565 105.748 106.721C106.361 106.884 106.95 106.874 107.514 106.693C108.078 106.511 108.584 106.17 109.033 105.67C109.482 105.17 109.77 104.625 109.896 104.037C110.016 103.456 109.962 102.87 109.733 102.278C109.512 101.693 109.124 101.152 108.569 100.653C108.013 100.155 107.428 99.8236 106.815 99.6605C106.202 99.4974 105.609 99.5031 105.037 99.6776C104.466 99.8672 103.956 100.212 103.507 100.712Z" fill="black"/>
<path d="M90.9546 108.473L95.3921 110.779L96.2775 110.204L93.906 106.555L95.7842 105.334L101.87 114.698L98.355 116.983C97.6306 117.453 96.9292 117.725 96.2508 117.797C95.5782 117.878 94.9743 117.78 94.4391 117.505C93.9007 117.244 93.4572 116.845 93.1084 116.309C92.7074 115.692 92.523 115.016 92.5552 114.283C92.5933 113.559 92.9046 112.873 93.4891 112.226L88.7812 109.885L90.9546 108.473ZM97.193 111.612L95.6234 112.633C95.1136 112.964 94.8119 113.332 94.7184 113.736C94.6308 114.149 94.7293 114.575 95.0141 115.013C95.2931 115.442 95.6334 115.692 96.035 115.762C96.4423 115.84 96.9009 115.714 97.4107 115.383L98.9804 114.363L97.193 111.612Z" fill="black"/>
<path d="M77.4082 125.611L74.113 114.94L76.2532 114.28L78.3966 121.22L79.112 113.397L80.7325 112.896L85.7499 118.949L83.6066 112.009L85.7469 111.348L89.0421 122.019L86.6114 122.769L80.7673 115.883L79.8236 124.865L77.4082 125.611Z" fill="black"/>
<path d="M44.2058 65.6763L41.8706 66.3429L44.2781 67.06C55.6466 70.4464 64.464 79.2759 67.6629 90.4771L68.5527 93.5927L69.4425 90.4771C72.6414 79.2759 81.4588 70.4464 92.8273 67.06L95.2348 66.3429L92.8996 65.6763C81.4867 62.4184 72.5626 53.6841 69.2338 42.514L68.5527 40.2285L67.8716 42.514C64.5429 53.6841 55.6187 62.4184 44.2058 65.6763Z" fill="url(#paint0_angular_1801_1237)"/>
<path d="M44.2058 65.6763L41.8706 66.3429L44.2781 67.06C55.6466 70.4464 64.464 79.2759 67.6629 90.4771L68.5527 93.5927L69.4425 90.4771C72.6414 79.2759 81.4588 70.4464 92.8273 67.06L95.2348 66.3429L92.8996 65.6763C81.4867 62.4184 72.5626 53.6841 69.2338 42.514L68.5527 40.2285L67.8716 42.514C64.5429 53.6841 55.6187 62.4184 44.2058 65.6763Z" fill="black"/>
<defs>
<radialGradient id="paint0_angular_1801_1237" cx="0" cy="0" r="1" gradientUnits="userSpaceOnUse" gradientTransform="translate(68.5527 66.9106) rotate(90) scale(26.6821)">
<stop stop-color="#9CC4FF"/>
<stop offset="1" stop-color="#FF6A55" stop-opacity="0"/>
</radialGradient>
</defs>
</svg>
